<?xml version="1.0" encoding="utf-8"?>
<!-- Generator: Adobe Illustrator 28.2.0, SVG Export Plug-In . SVG Version: 6.00 Build 0)  -->
<svg version="1.1" id="Layer_1" xmlns="http://www.w3.org/2000/svg" xmlns:xlink="http://www.w3.org/1999/xlink" x="0px" y="0px"
	 viewBox="0 0 400.81 171.9" style="enable-background:new 0 0 400.81 171.9;" xml:space="preserve">
<g>
	<g id="qPyUiH.tif_00000026852377787354031350000001051441773624494986_">
		<path d="M263.93,95.75c2.45-11.18,4.91-22.34,7.35-33.49c2.88-13.11,5.76-26.2,8.62-39.28c0.22-1.01,0.3-2.03,0.48-3.33
			c-2.4,0.55-4.38,1.18-6.37,1.41c-4.46,0.5-8.95,0.85-13.43,1.25c-0.98,0.08-1.78,0.25-2.01,1.41c-0.47,2.25-0.95,4.48-1.46,6.72
			c-0.27,1.16,0.03,1.75,1.31,1.61c0.57-0.07,1.13-0.07,1.7-0.08c2.15-0.1,4.29-0.2,6.44-0.28c-2.2,10.02-4.33,19.68-6.49,29.56
			c-0.96-1-1.7-1.83-2.51-2.55c-4.76-4.24-10.61-4.34-16.6-3.16c-7.57,1.5-13.44,6.01-18.17,12.13c-4.24,5.52-7.05,11.7-8.34,18.38
			c-1.41,7.37-1.6,14.61,1.48,21.43c3.23,7.1,10.73,11.65,18.6,10.83c5.19-0.55,9.82-2.75,13.93-6.14c0.95-0.8,1.9-1.61,2.86-2.45
			c0.23,0.3,0.37,0.42,0.43,0.57c1.96,4.99,6.02,6.85,11.11,6.49c7.7-0.57,12.88-5.51,16.02-12.03c0.18-0.37-0.2-1.3-0.58-1.55
			c-1.21-0.78-2.56-1.4-3.86-2.03c-2.94-1.41-2.86-1.33-4.79,1.36c-1.13,1.55-2.45,3.08-3.99,4.21c-1.45,1.08-3.06,0.25-3.28-1.43
			c-0.1-0.77-0.05-1.6,0.1-2.36C262.91,100.56,263.39,98.15,263.93,95.75z M247.46,102.12c-3.21,4.18-7.42,6.49-12.68,6.31
			c-3.76-0.13-6.16-2.25-7.77-5.37c-1.65-3.24-2.16-6.8-1.75-10.48c0.8-7.17,2.7-14.09,7.19-20.13c0.43-0.6,0.9-1.16,1.36-1.7
			c0.28-0.33,0.58-0.65,0.9-0.96c0.4-0.4,0.8-0.78,1.23-1.16c0.43-0.37,0.86-0.7,1.33-1.03c1.83-1.28,3.89-2.21,6.29-2.66
			c5.41-1.03,10.03,1.6,11.36,6.82c0.52,1.98,0.73,4.06,1,5.57C255.16,86.62,253.01,94.9,247.46,102.12z"/>
		<path d="M81.08,42.78c-1.66,2.19-4.01,2.66-6.55,2.13c-2.35-0.5-3.89-2.01-4.6-4.38c-0.22-0.74-0.84-1.96-1.19-1.93
			c-0.91,0.05-2.17,0.41-2.58,1.1c-1.53,2.57-3.14,5.19-4.05,8.01c-1.51,4.63-2.5,9.43-3.68,14.16c-0.14,0.53-0.11,1.11-0.18,1.98
			c3.78,0.16,7.28,0.28,10.79,0.38c2.65,0.07,2.72,0.17,2.13,2.76c-0.38,1.65-0.83,3.29-1.12,4.95c-0.25,1.41-0.94,1.97-2.43,1.9
			c-3.23-0.18-6.47-0.17-9.7-0.42c-1.57-0.12-2.21,0.48-2.52,1.94c-1.93,8.93-3.88,17.86-5.9,26.75
			c-2.4,10.52-4.66,21.09-7.42,31.47c-1.15,4.3-3.1,8.42-5.28,12.24c-3.17,5.56-8.17,8.57-15.09,7.48c-3.57-0.56-6.8-2.08-8.9-5.58
			c-2.83-4.75-0.8-9.78,4.08-10.14c2.85-0.21,5.62,1.56,6.97,4.47c0.93,2,1.48,2.09,2.77,0.5c2.27-2.79,3.5-6.16,4.32-9.68
			c2.37-10.22,4.58-20.51,6.87-30.79c1.96-8.81,3.94-17.63,5.9-26.46c0.07-0.32,0.12-0.67,0.22-0.98c0.48-1.43,0.05-2.05-1.57-2.11
			c-2.95-0.11-5.9-0.46-8.85-0.66c-1.37-0.09-1.87-0.58-1.53-1.94c0.5-1.99,0.96-4,1.32-6.03c0.22-1.24,0.83-1.64,2.07-1.51
			c3.06,0.3,6.13,0.45,9.19,0.73c1.38,0.12,1.96-0.34,2.32-1.68c1.63-6.14,3.22-12.3,5.18-18.34c1.48-4.55,4-8.51,7.83-11.56
			c5.09-4.03,14.11-4.22,19.04-0.29C82.66,34.24,83.65,39.39,81.08,42.78z"/>
		<path d="M382.38,70.66c-1.32,0-2.82-0.57-4.07-1.23c-2.25-1.19-3.07-1.19-4.32,0.85c-3.87,6.34-7.7,12.74-11.51,19.2
			c-6.43,10.89-12.78,21.95-19.28,33.01c-2.93,4.98-5.97,9.91-9.29,14.67c-2.75,3.96-6.03,7.52-10.89,9.13
			c-3.55,1.18-9.93,1-12.96-2.67c-2.87-3.46-2.55-10.59,3.67-11.86c2.74-0.55,4.85,0.64,6.57,2.7c1.63,1.96,2.11,2.14,3.63,0.14
			c2.68-3.53,5.2-7.18,7.53-10.92c2.49-3.98,4.72-8.12,7-12.21c0.33-0.59,0.51-1.4,0.42-2.06c-1.75-12.29-3.56-24.56-5.34-36.83
			c-0.37-2.53-0.55-5.1-1.06-7.59c-0.2-0.99-0.93-2.14-1.76-2.68c-1.14-0.74-2.32-0.01-3.11,0.95c-1.1,1.35-2.19,2.71-3.12,4.18
			c-0.59,0.92-1.08,1.3-2.15,0.67c-1.83-1.06-3.7-2.02-5.57-2.99c-0.9-0.47-1.04-1.06-0.55-1.93c2.45-4.31,5.51-8.03,10.24-9.91
			c3.38-1.34,6.92-1.19,10.33,0.06c4.31,1.57,5.97,5.31,6.7,9.4c0.85,4.78,1.42,9.59,2.05,14.39c0.65,5.03,1.21,10.07,1.84,15.1
			c0.1,0.78,0.35,1.54,0.52,2.31c0.16,0.03,0.31,0.06,0.46,0.09c1.77-3.12,3.52-6.24,5.29-9.34c4.56-7.93,9.01-15.89,13.74-23.6
			c2.97-4.82,7.5-7.01,13.63-5.71c3.76,0.79,6.89,4.31,7.09,8.14C388.31,67.83,385.96,70.66,382.38,70.66z"/>
		<path d="M141.07,112.25c-1.81,5.84-9.61,11.92-15.81,12.2c-5.24,0.23-9.41-1.61-11.37-6.37c-3.72,1.98-7.09,4.21-10.77,5.57
			c-5.05,1.86-10.32,2.2-15.46-0.04c-6.33-2.76-8.41-7.49-8.3-13.76c0.1-6.52,2.06-12.69,3.5-18.96c1.14-4.96,2.31-9.9,3.52-14.84
			c0.35-1.42-0.03-2.02-1.53-1.98c-1.81,0.04-3.63-0.05-5.45-0.06c-1.23,0-1.83-0.47-1.54-1.77c0.48-2.15,0.97-4.29,1.44-6.44
			c0.26-1.2,1.09-1.41,2.16-1.38c5.67,0.09,11.35,0.13,17.02,0.03c1.51-0.03,1.72,0.63,1.42,1.88c-0.94,4.04-1.86,8.07-2.77,12.12
			c-1.95,8.68-3.95,17.35-5.79,26.05c-0.38,1.79-0.31,3.73-0.18,5.58c0.17,2.43,2.21,4.5,4.87,5.05c5.5,1.13,10.1-0.75,13.8-4.86
			c3.14-3.49,4.85-7.74,5.86-12.24c1.7-7.56,3.32-15.14,5.04-22.7c0.28-1.26-0.05-1.68-1.28-1.63c-1.81,0.08-3.63,0.09-5.45,0.16
			c-1.21,0.04-1.63-0.48-1.36-1.67c0.48-2.11,0.92-4.23,1.35-6.35c0.23-1.13,0.85-1.64,2.02-1.66c5.56-0.12,11.13-0.31,16.68-0.57
			c1.42-0.07,1.8,0.55,1.51,1.86c-1.53,6.92-3.05,13.84-4.57,20.75c-1.28,5.86-2.56,11.71-3.8,17.57c-0.55,2.62-1.12,5.25-1.42,7.9
			c-0.1,0.9,0.36,2.12,1,2.75c0.91,0.89,2.26,0.48,3.07-0.42c1.46-1.6,2.85-3.31,4.04-5.12c0.73-1.12,1.31-1.42,2.45-0.82
			c1.77,0.94,3.63,1.72,5.37,2.69C140.76,110.98,141.19,111.83,141.07,112.25z"/>
		<path d="M210.36,108.4c-3.03,5.91-7.2,10.52-13.91,12.08c-7.57,1.76-15.51-3.19-14.07-12.2c0.95-5.98,2.35-11.91,3.55-17.87
			c0.89-4.39,1.81-8.76,2.66-13.15c1.07-5.55-2.43-9.23-7.98-8.58c-4.62,0.55-8.17,2.92-11.08,6.54c-3.19,3.98-4.81,8.62-5.98,13.38
			c-1.62,6.63-3.03,13.31-4.51,19.96c-0.8,3.64-1.59,7.28-2.3,10.93c-0.27,1.41-0.9,2.09-2.4,2.11c-2.61,0.05-5.22,0.24-7.83,0.38
			c-1.19,0.07-1.62-0.4-1.34-1.63c1.73-7.64,3.43-15.3,5.13-22.96c1.7-7.66,3.4-15.33,5.08-22.99c0.14-0.6,0.19-1.22,0.33-2.19
			c-2.77,0.15-5.26,0.3-7.74,0.4c-1.92,0.08-2.04-0.11-1.63-2.03c0.38-1.78,0.8-3.58,1.06-5.38c0.25-1.68,1.04-2.31,2.74-2.34
			c5.51-0.09,11-0.58,16.44-1.91c0.72-0.17,1.44-0.32,2.16-0.47c0.04-0.01,0.09,0.06,0.34,0.22c-0.4,1.98-0.8,4.06-1.31,6.6
			c1.32-1.13,2.25-1.97,3.22-2.76c5.6-4.54,11.88-6.59,18.77-5.74c7.29,0.89,12.03,6.96,10.79,14.37
			c-1.45,8.69-3.4,17.32-5.13,25.98c-0.55,2.7-1.17,5.39-1.63,8.1c-0.2,1.27-0.44,2.78,1.06,3.39c1.46,0.6,2.85,0,3.86-1.19
			c1.21-1.42,2.32-2.94,3.29-4.53c0.61-1.01,1.11-1.35,2.15-0.83c1.82,0.92,3.69,1.75,5.55,2.6
			C210.48,107.03,210.83,107.49,210.36,108.4z"/>
		<path d="M314.41,106.62c-2.92,6.05-8.32,11.23-16,11.51c-8.28,0.3-13.7-5.95-12.07-14.25c1.43-7.32,3.2-14.57,4.81-21.84
			c1.36-6.11,2.69-12.22,4.05-18.32c2.11-9.49,4.23-18.96,6.33-28.43c0.45-2.01,0.29-2.16-1.75-2.15c-2.1,0.01-4.2,0.03-6.3,0.08
			c-1.25,0.04-1.58-0.5-1.28-1.69c0.5-1.98,1.02-3.97,1.34-5.98c0.25-1.6,1.06-1.98,2.54-2.05c4.47-0.19,8.95-0.41,13.41-0.76
			c2.11-0.17,4.19-0.77,6.73-1.24c-0.72,3.24-1.32,6.04-1.95,8.85c-1.68,7.51-3.35,15.01-5.04,22.53c-2.03,9-4.1,18.01-6.12,27.03
			c-1.85,8.3-3.65,16.63-5.49,24.95c-0.27,1.22-0.11,2.5,1.04,2.93c0.91,0.36,2.47,0.42,3.12-0.12c1.53-1.29,2.85-2.92,3.92-4.61
			c0.88-1.38,1.6-1.64,2.97-0.81c1.6,0.97,3.28,1.79,4.94,2.67C314.32,105.28,314.86,105.68,314.41,106.62z"/>
	</g>
	<path d="M193.46,135.55c-0.21-0.21-0.33-0.41-0.37-0.61C193.18,135.17,193.31,135.36,193.46,135.55z"/>
	<path d="M186.93,140.68c0,0.03,0.01,0.05,0.01,0.08c0.06,0.39,0.39,0.7,0.7,0.94c9.25,7.53,21.38,10.69,33.27,9.14
		c7.59-0.98,13.64-3.51,19.15-7.49c3.54-2.56,6.85-5.52,9.59-8.85c0.19-0.24,0.39-0.5,0.4-0.8c0.01-0.39-0.28-0.7-0.56-0.97
		c-1.02-1-2.04-1.99-3.06-2.98c-0.46-0.44-0.92-0.89-1.5-1.16c-2.54-1.17-4.94,2.54-6.52,4c-6.5,6.06-11.93,8.87-20.63,9.26
		c-8.72,0.4-17.28-2.3-24.32-7.3c-0.7-0.51-1.66-1.05-2.4-0.57c-0.15,0.09-0.26,0.2-0.37,0.34c-0.1,0.13-0.19,0.27-0.28,0.42
		c-1.06,1.69-2.11,3.38-3.17,5.07C187.09,140.07,186.92,140.35,186.93,140.68z"/>
</g>
</svg>
